<svg width="120" height="120" viewBox="0 0 120 120" fill="none" xmlns="http://www.w3.org/2000/svg">
<rect x="112" y="8" width="88" height="20" transform="rotate(90 112 8)" fill="black"/>
<rect x="90" y="13" width="94" height="20" transform="rotate(90 90 13)" fill="black"/>
<rect x="102" y="11" width="91" height="20" transform="rotate(90 102 11)" fill="black"/>
<rect x="78" y="12" width="100" height="20" transform="rotate(90 78 12)" fill="black"/>
<rect x="62" y="10" width="104" height="19" transform="rotate(90 62 10)" fill="black"/>
<rect x="35" y="20" width="83" height="20" transform="rotate(90 35 20)" fill="black"/>
<rect x="50" y="83" width="27" height="20" transform="rotate(90 50 83)" fill="black"/>
<rect x="50" y="48" width="29" height="20" transform="rotate(90 50 48)" fill="black"/>
<rect x="50" y="13" width="29" height="20" transform="rotate(90 50 13)" fill="black"/>
<rect x="28" y="30" width="68" height="20" transform="rotate(90 28 30)" fill="black"/>
</svg>
